<?xml version="1.0" encoding="UTF-8"?>
<svg version="1.1" xmlns="http://www.w3.org/2000/svg" width="188" height="50">
<path d="M0 0 C1.33686363 0.65955883 2.66946968 1.32775653 4 2 C4.63421875 2.30035156 5.2684375 2.60070312 5.921875 2.91015625 C8.34217989 4.43577579 9.52409502 5.50763153 11 8 C11.90523666 13.6045834 11.3952459 19.36617756 11 25 C6.75266168 25.98142381 2.52675467 26.30920379 -1.8125 26.5625 C-2.50537109 26.60568359 -3.19824219 26.64886719 -3.91210938 26.69335938 C-5.60788686 26.79861453 -7.30392052 26.89972863 -9 27 C-9.27264574 10.09596413 -9.27264574 10.09596413 -6.15234375 4.95703125 C-4.19203842 3.05895783 -2.30510987 1.45447707 0 0 Z " fill="#E8C66F" transform="translate(16,2)"/>
<path d="M0 0 C0.97710937 -0.01417969 1.95421875 -0.02835938 2.9609375 -0.04296875 C5.625 0.1875 5.625 0.1875 8.625 2.1875 C8.295 3.1775 7.965 4.1675 7.625 5.1875 C8.945 5.1875 10.265 5.1875 11.625 5.1875 C11.13 3.2075 11.13 3.2075 10.625 1.1875 C11.945 0.8575 13.265 0.5275 14.625 0.1875 C14.625 4.4775 14.625 8.7675 14.625 13.1875 C13.305 12.5275 11.985 11.8675 10.625 11.1875 C10.955 10.1975 11.285 9.2075 11.625 8.1875 C10.305 8.1875 8.985 8.1875 7.625 8.1875 C7.955 9.8375 8.285 11.4875 8.625 13.1875 C7.305 13.1875 5.985 13.1875 4.625 13.1875 C4.955 9.5575 5.285 5.9275 5.625 2.1875 C4.635 3.6725 4.635 3.6725 3.625 5.1875 C2.965 4.8575 2.305 4.5275 1.625 4.1875 C1.625 7.1575 1.625 10.1275 1.625 13.1875 C0.305 13.1875 -1.015 13.1875 -2.375 13.1875 C-2.375 10.2175 -2.375 7.2475 -2.375 4.1875 C-3.365 4.1875 -4.355 4.1875 -5.375 4.1875 C-5.189375 4.765 -5.00375 5.3425 -4.8125 5.9375 C-4.33476454 8.39442525 -4.61770636 9.83147534 -5.375 12.1875 C-9.25 10.3125 -9.25 10.3125 -10.375 9.1875 C-10.705 10.1775 -11.035 11.1675 -11.375 12.1875 C-15.63066547 13.34813604 -19.0585078 12.94923392 -23.375 12.1875 C-23.40188151 10.54175434 -23.42134123 8.89588587 -23.4375 7.25 C-23.44910156 6.33347656 -23.46070312 5.41695312 -23.47265625 4.47265625 C-23.375 2.1875 -23.375 2.1875 -22.375 1.1875 C-18.94539331 1.12733146 -15.53048417 1.16764632 -12.1015625 1.2265625 C-10.19277587 1.24723528 -8.28360488 1.2209843 -6.375 1.1875 C-4.64526886 -0.54223114 -2.34983037 0.01541883 0 0 Z M-15.375 2.1875 C-15.375 2.8475 -15.375 3.5075 -15.375 4.1875 C-17.355 4.1875 -19.335 4.1875 -21.375 4.1875 C-21.375 4.5175 -21.375 4.8475 -21.375 5.1875 C-20.59125 5.290625 -19.8075 5.39375 -19 5.5 C-16.375 6.1875 -16.375 6.1875 -14.375 9.1875 C-14.375 6.8775 -14.375 4.5675 -14.375 2.1875 C-14.705 2.1875 -15.035 2.1875 -15.375 2.1875 Z M-11.375 4.1875 C-11.375 4.8475 -11.375 5.5075 -11.375 6.1875 C-10.055 6.1875 -8.735 6.1875 -7.375 6.1875 C-7.705 5.5275 -8.035 4.8675 -8.375 4.1875 C-9.365 4.1875 -10.355 4.1875 -11.375 4.1875 Z M-21.375 8.1875 C-21.375 8.8475 -21.375 9.5075 -21.375 10.1875 C-19.725 10.1875 -18.075 10.1875 -16.375 10.1875 C-16.375 9.5275 -16.375 8.8675 -16.375 8.1875 C-18.025 8.1875 -19.675 8.1875 -21.375 8.1875 Z M-15.375 10.1875 C-15.375 10.8475 -15.375 11.5075 -15.375 12.1875 C-14.715 12.1875 -14.055 12.1875 -13.375 12.1875 C-13.375 11.5275 -13.375 10.8675 -13.375 10.1875 C-14.035 10.1875 -14.695 10.1875 -15.375 10.1875 Z " fill="#7F968B" transform="translate(100.375,35.8125)"/>
<path d="M0 0 C4.29 0 8.58 0 13 0 C13.66 1.65 14.32 3.3 15 5 C13.0625 5.5625 13.0625 5.5625 11 6 C10.67 5.67 10.34 5.34 10 5 C5.37837077 4.60622179 5.37837077 4.60622179 1.0625 6 C-0.66149757 9.24517189 -0.65498416 12.41991613 0 16 C1.4228264 18.25463249 1.4228264 18.25463249 4 19 C7.68815293 18.77131906 7.68815293 18.77131906 11 18 C11.33 16.68 11.66 15.36 12 14 C10.02 14 8.04 14 6 14 C6 13.01 6 12.02 6 11 C7.47906892 10.97310784 8.95827483 10.95365379 10.4375 10.9375 C11.26121094 10.92589844 12.08492187 10.91429687 12.93359375 10.90234375 C15 11 15 11 16 12 C16.07205511 13.68608966 16.08386068 15.37500659 16.0625 17.0625 C16.05347656 17.98160156 16.04445313 18.90070312 16.03515625 19.84765625 C16.02355469 20.55792969 16.01195313 21.26820312 16 22 C11.01781583 23.28572495 4.83732737 24.52779166 0.12109375 21.98828125 C-3.7116497 18.91285097 -4.81865874 16.57162424 -5.375 11.75 C-4.94362975 7.43629753 -3.74525687 5.66773489 -1.09375 2.3828125 C0.10339373 1.16312784 0.10339373 1.16312784 0 0 Z " fill="#87AD92" transform="translate(41,5)"/>
<path d="M0 0 C5.28 0 10.56 0 16 0 C17.9723199 3.9446398 18.60526394 6.65790329 19 11 C18 14 18 14 16.234375 15.1796875 C13.74281777 16.09442005 11.89383164 16.20275975 9.25 16.125 C8.45078125 16.10695313 7.6515625 16.08890625 6.828125 16.0703125 C6.22484375 16.04710938 5.6215625 16.02390625 5 16 C5 17.98 5 19.96 5 22 C3.35 22.66 1.7 23.32 0 24 C0 16.08 0 8.16 0 0 Z M5 4 C5 6.97 5 9.94 5 13 C10.32170494 13.29562367 10.32170494 13.29562367 15 11 C15.41666667 8.5 15.41666667 8.5 15 6 C13.23863645 3.81668311 13.23863645 3.81668311 11.0546875 3.8046875 C8.02734375 3.90234375 8.02734375 3.90234375 5 4 Z " fill="#819C89" transform="translate(131,5)"/>
<path d="M0 0 C7.98662913 0.34130894 7.98662913 0.34130894 11.5 2.625 C13.53106945 5.84085996 13.93343405 8.20574107 14 12 C12.65437601 14.94755732 11.91445456 16.54277272 9 18 C5.08906009 18.3689566 2.66453411 18.33226705 -0.875 16.5625 C-3.49610271 13.40175849 -3.9531786 11.16168525 -4.21875 7.125 C-4 5 -4 5 -2.0625 2.5 C-1.381875 2.005 -0.70125 1.51 0 1 C0 0.67 0 0.34 0 0 Z M2 5 C1.01 6.485 1.01 6.485 0 8 C3.3 8 6.6 8 10 8 C9.34 6.68 8.68 5.36 8 4 C4.71069596 3.63314303 4.71069596 3.63314303 2 5 Z M0 11 C2.43442848 15.22463984 2.43442848 15.22463984 5.5625 15.375 C8.17528109 15.21896136 8.17528109 15.21896136 10 13 C10.66 13 11.32 13 12 13 C12 12.34 12 11.68 12 11 C8.04 11 4.08 11 0 11 Z " fill="#94B9A1" transform="translate(81,10)"/>
<path d="M0 0 C4.65240805 0.11149562 8.06990876 0.41157493 12.0625 2.9375 C14.80540163 7.27305419 14.43653536 11.00409528 14 16 C13.34 16.33 12.68 16.66 12 17 C11.67 17.66 11.34 18.32 11 19 C6.24095282 18.88594876 2.92198267 18.63974308 -1.0625 15.875 C-3.52005404 12.22830691 -3.61758081 10.32306567 -3 6 C-1.5 3.125 -1.5 3.125 0 1 C0 0.67 0 0.34 0 0 Z M1.125 5.6875 C-0.30124388 8.61922354 -0.04230389 9.95326554 1 13 C1.66 13.66 2.32 14.32 3 15 C6.82564665 14.81242938 6.82564665 14.81242938 10 13 C10.25003964 9.54178598 10.25003964 9.54178598 10 6 C8.17528109 3.78103864 8.17528109 3.78103864 5.5625 3.625 C2.90483483 3.77213053 2.90483483 3.77213053 1.125 5.6875 Z " fill="#8EAC94" transform="translate(166,10)"/>
<path d="M0 0 C0.66 0 1.32 0 2 0 C2.06058594 0.85464844 2.12117187 1.70929687 2.18359375 2.58984375 C2.26738281 3.69457031 2.35117188 4.79929687 2.4375 5.9375 C2.51871094 7.03964844 2.59992187 8.14179688 2.68359375 9.27734375 C2.70418084 11.91109903 2.70418084 11.91109903 4 13 C4.33 12.34 4.66 11.68 5 11 C5.66 11 6.32 11 7 11 C7 10.34 7 9.68 7 9 C6.01 9 5.02 9 4 9 C4 6.36 4 3.72 4 1 C6.64 1.33 9.28 1.66 12 2 C12 6.62 12 11.24 12 16 C10.4221875 16.2165625 10.4221875 16.2165625 8.8125 16.4375 C6.59299887 16.76496738 4.37760349 17.13831033 2.1875 17.625 C0 18 0 18 -2 17 C-1.34 11.39 -0.68 5.78 0 0 Z " fill="#E9BF64" transform="translate(9,11)"/>
<path d="M0 0 C0.66 0.33 1.32 0.66 2 1 C1.67 6.28 1.34 11.56 1 17 C-9.30833333 19.06166667 -9.30833333 19.06166667 -12.69921875 16.93359375 C-14.70141967 13.95734914 -14.28466795 11.34293565 -14.1875 7.8125 C-14.16042969 6.54019531 -14.13335937 5.26789062 -14.10546875 3.95703125 C-14.07066406 2.98121094 -14.03585938 2.00539063 -14 1 C-13.01 1 -12.02 1 -11 1 C-10.93941406 1.77085938 -10.87882812 2.54171875 -10.81640625 3.3359375 C-10.73261719 4.33882812 -10.64882813 5.34171875 -10.5625 6.375 C-10.44068359 7.87160156 -10.44068359 7.87160156 -10.31640625 9.3984375 C-10.15034374 11.97927613 -10.15034374 11.97927613 -9 14 C-7.35 13.67 -5.7 13.34 -4 13 C-3.96261719 12.22914062 -3.92523438 11.45828125 -3.88671875 10.6640625 C-3.82097656 9.66117188 -3.75523438 8.65828125 -3.6875 7.625 C-3.62949219 6.62726562 -3.57148437 5.62953125 -3.51171875 4.6015625 C-3.34285156 3.74304688 -3.17398438 2.88453125 -3 2 C-2.01 1.34 -1.02 0.68 0 0 Z " fill="#84A48F" transform="translate(74,10)"/>
<path d="M0 0 C1.60875 0.5878125 1.60875 0.5878125 3.25 1.1875 C3.25 2.1775 3.25 3.1675 3.25 4.1875 C0.64417629 5.11815133 -0.39198224 5.33667407 -3 4.25 C-3.86625 3.7240625 -3.86625 3.7240625 -4.75 3.1875 C-4.75 4.1775 -4.75 5.1675 -4.75 6.1875 C-3.76 5.8575 -2.77 5.5275 -1.75 5.1875 C-1.75 5.8475 -1.75 6.5075 -1.75 7.1875 C0.23 7.1875 2.21 7.1875 4.25 7.1875 C5.51066301 10.96948904 4.67292658 12.55113208 3.25 16.1875 C2.25 17.1875 2.25 17.1875 -1.5625 17.5 C-4.87936552 17.48213537 -5.5352453 17.35930376 -8.25 15.1875 C-8.745 14.5275 -9.24 13.8675 -9.75 13.1875 C-9.42 12.5275 -9.09 11.8675 -8.75 11.1875 C-8.193125 11.5175 -7.63625 11.8475 -7.0625 12.1875 C-4.44715478 13.3184601 -2.5693354 13.34412974 0.25 13.1875 C0.58 12.5275 0.91 11.8675 1.25 11.1875 C0.156875 10.919375 -0.93625 10.65125 -2.0625 10.375 C-7.18902439 8.72408537 -7.18902439 8.72408537 -8.75 6.1875 C-8.66451073 3.4518434 -7.91286867 2.37542539 -6.125 0.3125 C-3.75 -0.8125 -3.75 -0.8125 0 0 Z " fill="#85A38E" transform="translate(104.75,10.8125)"/>
<path d="M0 0 C0.99 0.33 1.98 0.66 3 1 C3 2.32 3 3.64 3 5 C4.32 5 5.64 5 7 5 C7 5.99 7 6.98 7 8 C5.68 8 4.36 8 3 8 C3 11.63 3 15.26 3 19 C4.65 19.33 6.3 19.66 8 20 C7.67 20.66 7.34 21.32 7 22 C4.125 22.1875 4.125 22.1875 1 22 C-1.28062828 18.57905758 -1.21925007 17.31812778 -1.125 13.3125 C-1.10695313 12.31863281 -1.08890625 11.32476562 -1.0703125 10.30078125 C-1.04710938 9.54152344 -1.02390625 8.78226563 -1 8 C-1.99 7.67 -2.98 7.34 -4 7 C-3.67 6.34 -3.34 5.68 -3 5 C-2.34 5 -1.68 5 -1 5 C-0.67 3.35 -0.34 1.7 0 0 Z " fill="#8CAD97" transform="translate(114,6)"/>
<path d="M0 0 C1.4540625 0.0309375 1.4540625 0.0309375 2.9375 0.0625 C3.081875 0.866875 3.22625 1.67125 3.375 2.5 C3.67885249 4.98353706 3.67885249 4.98353706 4.9375 6.0625 C7.27694736 5.77519945 9.6114143 5.44313221 11.9375 5.0625 C12.5975 7.0425 13.2575 9.0225 13.9375 11.0625 C10.0625 9.1875 10.0625 9.1875 8.9375 8.0625 C8.6075 9.0525 8.2775 10.0425 7.9375 11.0625 C3.68183453 12.22313604 0.2539922 11.82423392 -4.0625 11.0625 C-4.08938151 9.41675434 -4.10884123 7.77088587 -4.125 6.125 C-4.13660156 5.20847656 -4.14820312 4.29195312 -4.16015625 3.34765625 C-4.00919455 -0.18484756 -3.60673121 0.07360676 0 0 Z M-2.0625 7.0625 C-2.0625 7.7225 -2.0625 8.3825 -2.0625 9.0625 C-0.4125 9.0625 1.2375 9.0625 2.9375 9.0625 C2.9375 8.4025 2.9375 7.7425 2.9375 7.0625 C1.2875 7.0625 -0.3625 7.0625 -2.0625 7.0625 Z M3.9375 9.0625 C3.9375 9.7225 3.9375 10.3825 3.9375 11.0625 C4.5975 11.0625 5.2575 11.0625 5.9375 11.0625 C5.9375 10.4025 5.9375 9.7425 5.9375 9.0625 C5.2775 9.0625 4.6175 9.0625 3.9375 9.0625 Z " fill="#78897D" transform="translate(81.0625,36.9375)"/>
<path d="M0 0 C0 0.99 0 1.98 0 3 C-1.2065625 3.804375 -1.2065625 3.804375 -2.4375 4.625 C-5.76695801 7.71083913 -5.69577807 9.79411905 -5.95703125 14.171875 C-5.97121094 14.77515625 -5.98539063 15.3784375 -6 16 C-7.32 16 -8.64 16 -10 16 C-10.08076963 13.54101345 -10.14037143 11.08466258 -10.1875 8.625 C-10.21263672 7.92632812 -10.23777344 7.22765625 -10.26367188 6.5078125 C-10.29296875 4.4765625 -10.29296875 4.4765625 -10 1 C-6.1496895 -1.56687367 -4.41430237 -0.83288724 0 0 Z " fill="#748D7B" transform="translate(162,11)"/>
<path d="M0 0 C2.83203125 0.03255208 5.6640625 0.06510417 8.49609375 0.09765625 C8.82609375 3.72765625 9.15609375 7.35765625 9.49609375 11.09765625 C8.83609375 11.09765625 8.17609375 11.09765625 7.49609375 11.09765625 C7.68171875 11.90203125 7.86734375 12.70640625 8.05859375 13.53515625 C8.20296875 14.38078125 8.34734375 15.22640625 8.49609375 16.09765625 C7.49609375 17.09765625 7.49609375 17.09765625 5.6484375 17.1953125 C3.59765625 17.16276042 1.546875 17.13020833 -0.50390625 17.09765625 C-0.50390625 16.76765625 -0.50390625 16.43765625 -0.50390625 16.09765625 C1.80609375 16.09765625 4.11609375 16.09765625 6.49609375 16.09765625 C6.49609375 11.47765625 6.49609375 6.85765625 6.49609375 2.09765625 C4.18609375 2.09765625 1.87609375 2.09765625 -0.50390625 2.09765625 C-0.83390625 4.40765625 -1.16390625 6.71765625 -1.50390625 9.09765625 C-0.51390625 9.09765625 0.47609375 9.09765625 1.49609375 9.09765625 C1.49609375 9.75765625 1.49609375 10.41765625 1.49609375 11.09765625 C0.83609375 11.09765625 0.17609375 11.09765625 -0.50390625 11.09765625 C-1.16390625 12.41765625 -1.82390625 13.73765625 -2.50390625 15.09765625 C-3.54267008 11.98136476 -3.6375225 9.73821335 -3.62890625 6.47265625 C-3.63148437 5.49039062 -3.6340625 4.508125 -3.63671875 3.49609375 C-3.4540838 0.19792135 -3.31055836 0.12911694 0 0 Z " fill="#E4C880" transform="translate(14.50390625,10.90234375)"/>
<path d="M0 0 C0.99 0 1.98 0 3 0 C3.06058594 0.77085938 3.12117188 1.54171875 3.18359375 2.3359375 C3.26738281 3.33882812 3.35117187 4.34171875 3.4375 5.375 C3.55931641 6.87160156 3.55931641 6.87160156 3.68359375 8.3984375 C3.84965626 10.97927613 3.84965626 10.97927613 5 13 C7.01669827 14.13350534 7.01669827 14.13350534 9 15 C9 15.66 9 16.32 9 17 C3.57446809 17.36170213 3.57446809 17.36170213 1.3125 15.9375 C-0.70439276 12.96018212 -0.28491047 10.35174705 -0.1875 6.8125 C-0.16042969 5.54019531 -0.13335937 4.26789062 -0.10546875 2.95703125 C-0.07066406 1.98121094 -0.03585938 1.00539063 0 0 Z " fill="#92B79E" transform="translate(60,11)"/>
<path d="M0 0 C2.922536 1.461268 3.61810975 3.04777991 5 6 C5.24709736 8.72311374 5.13952792 11.25595095 5 14 C3.02 14.66 1.04 15.32 -1 16 C-1.33 14.35 -1.66 12.7 -2 11 C-1.34 11 -0.68 11 0 11 C0.08226668 7.95613276 -0.02391783 5.92824652 -1 3 C-1.99 2.67 -2.98 2.34 -4 2 C-2.68 2 -1.36 2 0 2 C0 1.34 0 0.68 0 0 Z " fill="#7F9C87" transform="translate(145,5)"/>
<path d="M0 0 C6.64615385 1.47692308 6.64615385 1.47692308 8.4375 4.125 C8.7159375 5.053125 8.7159375 5.053125 9 6 C7.6875 7.5 7.6875 7.5 6 9 C5.01 9 4.02 9 3 9 C3 9.99 3 10.98 3 12 C2.01 12.33 1.02 12.66 0 13 C0 8.71 0 4.42 0 0 Z M3 4 C3 4.99 3 5.98 3 7 C3.99 6.67 4.98 6.34 6 6 C6 5.34 6 4.68 6 4 C5.01 4 4.02 4 3 4 Z " fill="#85A297" transform="translate(67,36)"/>
<path d="M0 0 C1.47906892 -0.02689216 2.95827483 -0.04634621 4.4375 -0.0625 C5.26121094 -0.07410156 6.08492187 -0.08570313 6.93359375 -0.09765625 C9 0 9 0 10 1 C10.07205511 2.68608966 10.08386068 4.37500659 10.0625 6.0625 C10.05347656 6.98160156 10.04445313 7.90070312 10.03515625 8.84765625 C10.02355469 9.55792969 10.01195312 10.26820312 10 11 C9.01 11.33 8.02 11.66 7 12 C6.67 9.03 6.34 6.06 6 3 C4.02 3 2.04 3 0 3 C0 2.01 0 1.02 0 0 Z " fill="#7FA18A" transform="translate(47,16)"/>
<path d="M0 0 C4.29 0 8.58 0 13 0 C13.66 1.65 14.32 3.3 15 5 C13.0625 5.5625 13.0625 5.5625 11 6 C10.67 5.67 10.34 5.34 10 5 C7.70356092 4.96854193 5.42349871 5.0680779 3.12890625 5.16015625 C1 5 1 5 -1 3 C-0.67 2.01 -0.34 1.02 0 0 Z " fill="#80A18A" transform="translate(41,5)"/>
<path d="M0 0 C4.43633178 1.81074766 4.43633178 1.81074766 6.0625 4.25 C6.25 6.9375 6.25 6.9375 6.0625 9.25 C3.54196405 10.51026798 2.2082902 10.16874445 -0.5625 9.8125 C-1.37976563 9.71066406 -2.19703125 9.60882813 -3.0390625 9.50390625 C-3.66554688 9.42011719 -4.29203125 9.33632813 -4.9375 9.25 C-4.9375 8.92 -4.9375 8.59 -4.9375 8.25 C-1.9675 8.25 1.0025 8.25 4.0625 8.25 C4.0625 7.59 4.0625 6.93 4.0625 6.25 C3.0725 5.92 2.0825 5.59 1.0625 5.25 C0.0725 4.59 -0.9175 3.93 -1.9375 3.25 C-2.9275 2.92 -3.9175 2.59 -4.9375 2.25 C-4.9375 1.59 -4.9375 0.93 -4.9375 0.25 C-2.9375 -0.75 -2.9375 -0.75 0 0 Z " fill="#91B49D" transform="translate(87.9375,10.75)"/>
<path d="M0 0 C0.66 0 1.32 0 2 0 C2.04898437 0.80824219 2.09796875 1.61648438 2.1484375 2.44921875 C2.22320313 3.51785156 2.29796875 4.58648437 2.375 5.6875 C2.44460937 6.74324219 2.51421875 7.79898437 2.5859375 8.88671875 C2.98760089 11.90677269 3.74069019 14.24078054 5 17 C0.25 18.125 0.25 18.125 -2 17 C-1.34 11.39 -0.68 5.78 0 0 Z " fill="#E5BE63" transform="translate(9,11)"/>
<path d="M0 0 C6.32258065 -0.36476427 6.32258065 -0.36476427 9.4375 1.3125 C11 3 11 3 11 6 C10.34 6.66 9.68 7.32 9 8 C8.54625 7.360625 8.0925 6.72125 7.625 6.0625 C6.16078274 3.90297594 6.16078274 3.90297594 4 3 C4 3.66 4 4.32 4 5 C4.66 5.33 5.32 5.66 6 6 C4.35 6 2.7 6 1 6 C0.67 4.02 0.34 2.04 0 0 Z " fill="#68766C" transform="translate(85,37)"/>
<path d="M0 0 C0.66 0 1.32 0 2 0 C1.98259766 0.85271484 1.98259766 0.85271484 1.96484375 1.72265625 C1.90776806 6.60670484 2.18043228 11.18503965 3 16 C1.68 16 0.36 16 -1 16 C-1.02685095 13.52076199 -1.04676547 11.0418116 -1.0625 8.5625 C-1.07506836 7.50192383 -1.07506836 7.50192383 -1.08789062 6.41992188 C-1.09653588 4.61306441 -1.05220011 2.80612397 -1 1 C-0.67 0.67 -0.34 0.34 0 0 Z " fill="#82A28D" transform="translate(153,11)"/>
<path d="M0 0 C0.66 0.33 1.32 0.66 2 1 C2 6.61 2 12.22 2 18 C1.34 18 0.68 18 0 18 C-0.33 16.35 -0.66 14.7 -1 13 C-0.34 13 0.32 13 1 13 C0.67 12.34 0.34 11.68 0 11 C-0.07033769 9.12620395 -0.0843022 7.24998898 -0.0625 5.375 C-0.05347656 4.37210938 -0.04445313 3.36921875 -0.03515625 2.3359375 C-0.02355469 1.56507812 -0.01195313 0.79421875 0 0 Z " fill="#E7C063" transform="translate(23,9)"/>
<path d="M0 0 C1.81552978 0.61614355 3.6273653 1.24318228 5.4375 1.875 C6.44683594 2.22304688 7.45617187 2.57109375 8.49609375 2.9296875 C11 4 11 4 12 6 C4.65306122 6.48979592 4.65306122 6.48979592 1.5 4.125 C0 2 0 2 0 0 Z " fill="#83A792" transform="translate(95,22)"/>
<path d="M0 0 C3.8063457 0.67170806 7.35206816 1.72746564 11 3 C11 3.99 11 4.98 11 6 C8.3125 6.3125 8.3125 6.3125 5 6 C2.125 3.5625 2.125 3.5625 0 1 C0 0.67 0 0.34 0 0 Z " fill="#98BDA5" transform="translate(163,22)"/>
<path d="M0 0 C0.33 0 0.66 0 1 0 C1.33 3.63 1.66 7.26 2 11 C-3 12 -3 12 -6 10 C-5.34 10 -4.68 10 -4 10 C-3.67 9.01 -3.34 8.02 -3 7 C-2.34 6.67 -1.68 6.34 -1 6 C-0.34227572 2.97065509 -0.34227572 2.97065509 0 0 Z " fill="#88AC97" transform="translate(73,16)"/>
<path d="M0 0 C0.66 0 1.32 0 2 0 C2 0.99 2 1.98 2 3 C2.99 3.33 3.98 3.66 5 4 C3.6875 5.5 3.6875 5.5 2 7 C1.01 7 0.02 7 -1 7 C-0.67 7.99 -0.34 8.98 0 10 C-0.99 10.495 -0.99 10.495 -2 11 C-2.66 9.02 -3.32 7.04 -4 5 C-3.34 4.360625 -2.68 3.72125 -2 3.0625 C0.11602431 1.35917681 0.11602431 1.35917681 0 0 Z " fill="#6E8D77" transform="translate(81,10)"/>
<path d="M0 0 C0.66 0.33 1.32 0.66 2 1 C1.071875 2.1446875 1.071875 2.1446875 0.125 3.3125 C-2.05597052 5.99625809 -2.05597052 5.99625809 -4 9 C-4.66 8.67 -5.32 8.34 -6 8 C-6 11.63 -6 15.26 -6 19 C-6.33 19 -6.66 19 -7 19 C-8.0735426 8.62242152 -8.0735426 8.62242152 -5.44140625 4.64453125 C-3.70296491 2.94806435 -1.96595538 1.42431461 0 0 Z " fill="#F3D875" transform="translate(15,3)"/>
<path d="M0 0 C6.625 -0.25 6.625 -0.25 10 2 C7.36 2 4.72 2 2 2 C2 4.31 2 6.62 2 9 C1.01 9.495 1.01 9.495 0 10 C0 6.7 0 3.4 0 0 Z " fill="#8CA794" transform="translate(134,7)"/>
<path d="M0 0 C0.33 0.66 0.66 1.32 1 2 C0.0625 4.625 0.0625 4.625 -2 7 C-4.79513791 7.45668592 -7.14221385 7.23424477 -10 7 C-7.85950154 4.85950154 -5.70744416 3.35372208 -3 2 C-2.34 2.33 -1.68 2.66 -1 3 C-0.67 2.01 -0.34 1.02 0 0 Z " fill="#6A8474" transform="translate(94,20)"/>
<path d="M0 0 C0.66 1.98 1.32 3.96 2 6 C-1.875 4.125 -1.875 4.125 -3 3 C-3.33 3.99 -3.66 4.98 -4 6 C-4.66 6 -5.32 6 -6 6 C-6.33 4.35 -6.66 2.7 -7 1 C-2.25 0 -2.25 0 0 0 Z " fill="#94B1A0" transform="translate(93,42)"/>
<path d="M0 0 C1 3 1 3 1 5 C-2.21451269 6.60725635 -5.43612536 6.05748185 -9 6 C-8.67 5.01 -8.34 4.02 -8 3 C-5.68970915 2.25740651 -3.354248 1.588562 -1 1 C-0.67 0.67 -0.34 0.34 0 0 Z " fill="#99BDA6" transform="translate(53,22)"/>
<path d="M0 0 C1.98 0 3.96 0 6 0 C6 3 6 3 4 6 C2.02 5.34 0.04 4.68 -2 4 C-1.34 2.68 -0.68 1.36 0 0 Z " fill="#677B6F" transform="translate(173,23)"/>
<path d="M0 0 C1.77049689 -0.05410687 3.54146849 -0.09284119 5.3125 -0.125 C6.29863281 -0.14820313 7.28476563 -0.17140625 8.30078125 -0.1953125 C11 0 11 0 14 2 C13.360625 2.12375 12.72125 2.2475 12.0625 2.375 C11.381875 2.58125 10.70125 2.7875 10 3 C9.67 3.66 9.34 4.32 9 5 C8.01 4.34 7.02 3.68 6 3 C3.67612053 2.60612212 1.34206251 2.26513915 -1 2 C-0.67 1.34 -0.34 0.68 0 0 Z " fill="#4F5A56" transform="translate(95,36)"/>
<path d="M0 0 C0.33 0.66 0.66 1.32 1 2 C1.66 2.33 2.32 2.66 3 3 C2.34 3 1.68 3 1 3 C1 3.99 1 4.98 1 6 C1.66 6.33 2.32 6.66 3 7 C1.35 7 -0.3 7 -2 7 C-2 5.02 -2 3.04 -2 1 C-1.34 0.67 -0.68 0.34 0 0 Z " fill="#85A18B" transform="translate(165,15)"/>
<path d="M0 0 C0 1.65 0 3.3 0 5 C-2.52053595 6.26026798 -3.8542098 5.91874445 -6.625 5.5625 C-7.85089844 5.40974609 -7.85089844 5.40974609 -9.1015625 5.25390625 C-10.04128906 5.12822266 -10.04128906 5.12822266 -11 5 C-11 4.67 -11 4.34 -11 4 C-8.03 4 -5.06 4 -2 4 C-2 3.34 -2 2.68 -2 2 C-2.99 1.67 -3.98 1.34 -5 1 C-1.125 0 -1.125 0 0 0 Z " fill="#84A28B" transform="translate(94,15)"/>
<path d="M0 0 C2.31 0 4.62 0 7 0 C7 0.66 7 1.32 7 2 C5.68 2 4.36 2 3 2 C3 3.32 3 4.64 3 6 C2.34 6 1.68 6 1 6 C0.67 4.02 0.34 2.04 0 0 Z " fill="#7D9381" transform="translate(85,37)"/>
<path d="M0 0 C1.98 0.66 3.96 1.32 6 2 C5.67 2.66 5.34 3.32 5 4 C3.02 4 1.04 4 -1 4 C-1 1 -1 1 0 0 Z " fill="#97B8A5" transform="translate(116,24)"/>
<path d="M0 0 C2.31 0.66 4.62 1.32 7 2 C7 2.99 7 3.98 7 5 C5.68 5.33 4.36 5.66 3 6 C3 5.01 3 4.02 3 3 C1.68 2.34 0.36 1.68 -1 1 C-0.67 0.67 -0.34 0.34 0 0 Z " fill="#7C9583" transform="translate(101,10)"/>
<path d="M0 0 C2.31 0.66 4.62 1.32 7 2 C7 3.32 7 4.64 7 6 C4.50638429 4.79618552 2.31856917 3.54571278 0 2 C0 1.34 0 0.68 0 0 Z " fill="#6D8379" transform="translate(67,36)"/>
<path d="M0 0 C0.5775 0.45375 1.155 0.9075 1.75 1.375 C3.7800333 2.84113516 5.73539843 3.94857784 8 5 C1.47692308 5.36923077 1.47692308 5.36923077 -0.9375 3.5 C-1.4634375 2.7575 -1.4634375 2.7575 -2 2 C-1.34 2 -0.68 2 0 2 C0 1.34 0 0.68 0 0 Z " fill="#9FBEAB" transform="translate(82,23)"/>
<path d="M0 0 C0.33 0 0.66 0 1 0 C1 1.65 1 3.3 1 5 C1.66 5 2.32 5 3 5 C3.33 3.68 3.66 2.36 4 1 C4.66 2.65 5.32 4.3 6 6 C1.25 7.125 1.25 7.125 -1 6 C-0.67 4.02 -0.34 2.04 0 0 Z " fill="#C7B271" transform="translate(8,22)"/>
<path d="M0 0 C1.65 0 3.3 0 5 0 C5.33 0.99 5.66 1.98 6 3 C3.36 3 0.72 3 -2 3 C-1.34 2.67 -0.68 2.34 0 2 C0 1.34 0 0.68 0 0 Z " fill="#94BBA5" transform="translate(138,18)"/>
<path d="M0 0 C0.99 0 1.98 0 3 0 C2.34 1.98 1.68 3.96 1 6 C0.01 5.67 -0.98 5.34 -2 5 C-1.125 1.125 -1.125 1.125 0 0 Z " fill="#8CB195" transform="translate(39,9)"/>
<path d="M0 0 C0.66 0.33 1.32 0.66 2 1 C0.68 1.99 -0.64 2.98 -2 4 C-1.34 2.68 -0.68 1.36 0 0 Z " fill="#000000" transform="translate(39,6)"/>
<path d="M0 0 C0.99 0.33 1.98 0.66 3 1 C2.67 1.66 2.34 2.32 2 3 C1.34 2.01 0.68 1.02 0 0 Z " fill="#000000" transform="translate(91,11)"/>
<path d="M0 0 C0.66 0.33 1.32 0.66 2 1 C1.01 1.66 0.02 2.32 -1 3 C-0.67 2.01 -0.34 1.02 0 0 Z " fill="#000000" transform="translate(97,10)"/>
<path d="M0 0 C0.99 0.33 1.98 0.66 3 1 C2.67 1.66 2.34 2.32 2 3 C1.34 2.01 0.68 1.02 0 0 Z " fill="#000000" transform="translate(19,2)"/>
<path d="M0 0 C0.99 0.33 1.98 0.66 3 1 C2.01 1 1.02 1 0 1 C0 0.67 0 0.34 0 0 Z " fill="#000000" transform="translate(74,37)"/>
<path d="M0 0 C0.99 0.33 1.98 0.66 3 1 C2.01 1 1.02 1 0 1 C0 0.67 0 0.34 0 0 Z " fill="#000000" transform="translate(22,5)"/>
<path d="M0 0 C0.33 0.66 0.66 1.32 1 2 C0.34 1.67 -0.32 1.34 -1 1 C-0.67 0.67 -0.34 0.34 0 0 Z " fill="#000000" transform="translate(156,27)"/>
<path d="M0 0 C0.66 0.66 1.32 1.32 2 2 C1.34 2 0.68 2 0 2 C0 1.34 0 0.68 0 0 Z " fill="#000000" transform="translate(96,18)"/>
<path d="M0 0 C0.99 0.495 0.99 0.495 2 1 C1.01 1.495 1.01 1.495 0 2 C0 1.34 0 0.68 0 0 Z " fill="#000000" transform="translate(42,11)"/>
<path d="M0 0 C2 1 2 1 2 1 Z " fill="#000000" transform="translate(135,28)"/>
<path d="M0 0 C2 1 2 1 2 1 Z " fill="#000000" transform="translate(90,28)"/>
<path d="M0 0 C2 1 2 1 2 1 Z " fill="#000000" transform="translate(74,28)"/>
<path d="M0 0 C2 1 2 1 2 1 Z " fill="#000000" transform="translate(70,28)"/>
<path d="M0 0 C2 1 2 1 2 1 Z " fill="#000000" transform="translate(52,28)"/>
<path d="M0 0 C2 1 2 1 2 1 Z " fill="#000000" transform="translate(26,28)"/>
<path d="" fill="#000000" transform="translate(0,0)"/>
<path d="M0 0 C2 1 2 1 2 1 Z " fill="#000000" transform="translate(145,21)"/>
<path d="M0 0 C2 1 2 1 2 1 Z " fill="#000000" transform="translate(169,15)"/>
<path d="" fill="#000000" transform="translate(0,0)"/>
<path d="M0 0 C2 1 2 1 2 1 Z " fill="#000000" transform="translate(108,15)"/>
<path d="M0 0 C2 1 2 1 2 1 Z " fill="#000000" transform="translate(87,15)"/>
<path d="M0 0 C2 1 2 1 2 1 Z " fill="#000000" transform="translate(55,11)"/>
<path d="" fill="#000000" transform="translate(0,0)"/>
<path d="" fill="#000000" transform="translate(0,0)"/>
<path d="" fill="#000000" transform="translate(0,0)"/>
<path d="" fill="#000000" transform="translate(0,0)"/>
<path d="" fill="#000000" transform="translate(0,0)"/>
<path d="" fill="#000000" transform="translate(0,0)"/>
<path d="" fill="#000000" transform="translate(0,0)"/>
<path d="" fill="#000000" transform="translate(0,0)"/>
<path d="" fill="#000000" transform="translate(0,0)"/>
<path d="" fill="#000000" transform="translate(0,0)"/>
<path d="" fill="#000000" transform="translate(0,0)"/>
<path d="" fill="#000000" transform="translate(0,0)"/>
<path d="" fill="#000000" transform="translate(0,0)"/>
<path d="" fill="#000000" transform="translate(0,0)"/>
<path d="" fill="#000000" transform="translate(0,0)"/>
<path d="" fill="#000000" transform="translate(0,0)"/>
<path d="" fill="#000000" transform="translate(0,0)"/>
<path d="" fill="#000000" transform="translate(0,0)"/>
<path d="" fill="#000000" transform="translate(0,0)"/>
<path d="" fill="#000000" transform="translate(0,0)"/>
<path d="" fill="#000000" transform="translate(0,0)"/>
<path d="" fill="#000000" transform="translate(0,0)"/>
<path d="" fill="#000000" transform="translate(0,0)"/>
<path d="" fill="#000000" transform="translate(0,0)"/>
<path d="" fill="#000000" transform="translate(0,0)"/>
<path d="" fill="#000000" transform="translate(0,0)"/>
<path d="" fill="#000000" transform="translate(0,0)"/>
<path d="" fill="#000000" transform="translate(0,0)"/>
<path d="" fill="#000000" transform="translate(0,0)"/>
<path d="" fill="#000000" transform="translate(0,0)"/>
<path d="" fill="#000000" transform="translate(0,0)"/>
<path d="" fill="#000000" transform="translate(0,0)"/>
<path d="" fill="#000000" transform="translate(0,0)"/>
<path d="" fill="#000000" transform="translate(0,0)"/>
<path d="" fill="#000000" transform="translate(0,0)"/>
<path d="" fill="#000000" transform="translate(0,0)"/>
<path d="" fill="#000000" transform="translate(0,0)"/>
<path d="" fill="#000000" transform="translate(0,0)"/>
<path d="" fill="#000000" transform="translate(0,0)"/>
<path d="" fill="#000000" transform="translate(0,0)"/>
<path d="" fill="#000000" transform="translate(0,0)"/>
<path d="" fill="#000000" transform="translate(0,0)"/>
<path d="" fill="#000000" transform="translate(0,0)"/>
<path d="" fill="#000000" transform="translate(0,0)"/>
<path d="" fill="#000000" transform="translate(0,0)"/>
<path d="" fill="#000000" transform="translate(0,0)"/>
<path d="" fill="#000000" transform="translate(0,0)"/>
<path d="" fill="#000000" transform="translate(0,0)"/>
<path d="" fill="#000000" transform="translate(0,0)"/>
<path d="" fill="#000000" transform="translate(0,0)"/>
<path d="" fill="#000000" transform="translate(0,0)"/>
<path d="" fill="#000000" transform="translate(0,0)"/>
<path d="" fill="#000000" transform="translate(0,0)"/>
<path d="" fill="#000000" transform="translate(0,0)"/>
<path d="" fill="#000000" transform="translate(0,0)"/>
<path d="" fill="#000000" transform="translate(0,0)"/>
<path d="" fill="#000000" transform="translate(0,0)"/>
<path d="" fill="#000000" transform="translate(0,0)"/>
<path d="" fill="#000000" transform="translate(0,0)"/>
<path d="" fill="#000000" transform="translate(0,0)"/>
<path d="" fill="#000000" transform="translate(0,0)"/>
<path d="" fill="#000000" transform="translate(0,0)"/>
<path d="" fill="#000000" transform="translate(0,0)"/>
<path d="" fill="#000000" transform="translate(0,0)"/>
<path d="" fill="#000000" transform="translate(0,0)"/>
<path d="" fill="#000000" transform="translate(0,0)"/>
<path d="" fill="#000000" transform="translate(0,0)"/>
<path d="" fill="#000000" transform="translate(0,0)"/>
<path d="" fill="#000000" transform="translate(0,0)"/>
<path d="" fill="#000000" transform="translate(0,0)"/>
<path d="" fill="#000000" transform="translate(0,0)"/>
<path d="" fill="#000000" transform="translate(0,0)"/>
<path d="" fill="#000000" transform="translate(0,0)"/>
<path d="" fill="#000000" transform="translate(0,0)"/>
<path d="" fill="#000000" transform="translate(0,0)"/>
<path d="" fill="#000000" transform="translate(0,0)"/>
<path d="" fill="#000000" transform="translate(0,0)"/>
<path d="" fill="#000000" transform="translate(0,0)"/>
<path d="" fill="#000000" transform="translate(0,0)"/>
<path d="" fill="#000000" transform="translate(0,0)"/>
<path d="" fill="#000000" transform="translate(0,0)"/>
<path d="" fill="#000000" transform="translate(0,0)"/>
<path d="" fill="#000000" transform="translate(0,0)"/>
<path d="" fill="#000000" transform="translate(0,0)"/>
<path d="" fill="#000000" transform="translate(0,0)"/>
<path d="" fill="#000000" transform="translate(0,0)"/>
<path d="" fill="#000000" transform="translate(0,0)"/>
<path d="" fill="#000000" transform="translate(0,0)"/>
<path d="" fill="#000000" transform="translate(0,0)"/>
<path d="" fill="#000000" transform="translate(0,0)"/>
<path d="" fill="#000000" transform="translate(0,0)"/>
<path d="" fill="#000000" transform="translate(0,0)"/>
<path d="" fill="#000000" transform="translate(0,0)"/>
<path d="" fill="#000000" transform="translate(0,0)"/>
<path d="" fill="#000000" transform="translate(0,0)"/>
<path d="" fill="#000000" transform="translate(0,0)"/>
<path d="" fill="#000000" transform="translate(0,0)"/>
<path d="" fill="#000000" transform="translate(0,0)"/>
<path d="" fill="#000000" transform="translate(0,0)"/>
<path d="" fill="#000000" transform="translate(0,0)"/>
<path d="" fill="#000000" transform="translate(0,0)"/>
<path d="" fill="#000000" transform="translate(0,0)"/>
<path d="" fill="#000000" transform="translate(0,0)"/>
<path d="" fill="#000000" transform="translate(0,0)"/>
<path d="" fill="#000000" transform="translate(0,0)"/>
<path d="" fill="#000000" transform="translate(0,0)"/>
<path d="" fill="#000000" transform="translate(0,0)"/>
<path d="" fill="#000000" transform="translate(0,0)"/>
<path d="" fill="#000000" transform="translate(0,0)"/>
<path d="" fill="#000000" transform="translate(0,0)"/>
<path d="" fill="#000000" transform="translate(0,0)"/>
<path d="" fill="#000000" transform="translate(0,0)"/>
<path d="" fill="#000000" transform="translate(0,0)"/>
<path d="" fill="#000000" transform="translate(0,0)"/>
<path d="" fill="#000000" transform="translate(0,0)"/>
<path d="" fill="#000000" transform="translate(0,0)"/>
<path d="" fill="#000000" transform="translate(0,0)"/>
<path d="" fill="#000000" transform="translate(0,0)"/>
<path d="" fill="#000000" transform="translate(0,0)"/>
<path d="" fill="#000000" transform="translate(0,0)"/>
<path d="" fill="#000000" transform="translate(0,0)"/>
<path d="" fill="#000000" transform="translate(0,0)"/>
<path d="" fill="#000000" transform="translate(0,0)"/>
<path d="" fill="#000000" transform="translate(0,0)"/>
<path d="" fill="#000000" transform="translate(0,0)"/>
<path d="" fill="#000000" transform="translate(0,0)"/>
<path d="" fill="#000000" transform="translate(0,0)"/>
<path d="" fill="#000000" transform="translate(0,0)"/>
<path d="" fill="#000000" transform="translate(0,0)"/>
<path d="" fill="#000000" transform="translate(0,0)"/>
</svg>
